<svg width="37" height="35" viewBox="0 0 37 35" fill="none" xmlns="http://www.w3.org/2000/svg">
<path d="M32.1272 1.48568H4.87277C3.88709 1.48568 2.94178 1.86281 2.24479 2.5341C1.54781 3.2054 1.15625 4.11587 1.15625 5.06522L1.15625 31.3152C1.15625 32.2646 1.54781 33.175 2.24479 33.8463C2.94178 34.5176 3.88709 34.8948 4.87277 34.8948H15.4997V23.5364H10.6218V18.1902H15.4997V14.1155C15.4997 9.48074 18.3645 6.92062 22.7523 6.92062C24.8537 6.92062 27.0511 7.28156 27.0511 7.28156V11.8306H24.6299C22.2444 11.8306 21.5003 13.2564 21.5003 14.7188V18.1902H26.8258L25.9741 23.5364H21.5003V34.8948H32.1272C33.1129 34.8948 34.0582 34.5176 34.7552 33.8463C35.4522 33.175 35.8437 32.2646 35.8437 31.3152V5.06522C35.8437 4.11587 35.4522 3.2054 34.7552 2.5341C34.0582 1.86281 33.1129 1.48568 32.1272 1.48568V1.48568Z" fill="white"/>
</svg>
