<svg width="70" height="48" viewBox="0 0 70 48" fill="none" xmlns="http://www.w3.org/2000/svg">
<rect x="0.5" y="0.5" width="69" height="47" rx="5.5" fill="white" stroke="#D9D9D9"/>
<path fill-rule="evenodd" clip-rule="evenodd" d="M33.0603 31.5162V25.4743H36.1786C37.4564 25.4743 38.535 25.0461 39.4142 24.2017L39.6252 23.9876C41.2313 22.2392 41.1258 19.5156 39.4142 17.8981C38.5584 17.0418 37.3861 16.5779 36.1786 16.6017H31.1728V31.5162H33.0603ZM33.0605 23.6426V18.4333H36.2262C36.9063 18.4333 37.5511 18.6949 38.0319 19.1707C39.0519 20.1697 39.0754 21.8348 38.0905 22.8696C37.6098 23.381 36.9297 23.6664 36.2262 23.6426H33.0605ZM48.4293 22.1084C47.6204 21.3591 46.5184 20.9785 45.1234 20.9785C43.3298 20.9785 41.9816 21.6446 41.0906 22.9647L42.7553 24.0233C43.3649 23.1194 44.1973 22.6674 45.2523 22.6674C45.9206 22.6674 46.5653 22.9172 47.0694 23.3691C47.5618 23.7973 47.8431 24.4158 47.8431 25.0699V25.51C47.1163 25.1056 46.2019 24.8915 45.0765 24.8915C43.7635 24.8915 42.7084 25.2007 41.923 25.8311C41.1375 26.4614 40.7389 27.294 40.7389 28.3525C40.7155 29.3159 41.1258 30.2317 41.8526 30.8502C42.5912 31.5162 43.529 31.8492 44.631 31.8492C45.9323 31.8492 46.9639 31.2664 47.7494 30.1009H47.8314V31.5162H49.6368V25.2245C49.6368 23.9043 49.2382 22.8577 48.4293 22.1084ZM43.3066 29.637C42.9197 29.3516 42.6852 28.8877 42.6852 28.3882C42.6852 27.8292 42.9432 27.3653 43.4473 26.9966C43.9632 26.6279 44.6081 26.4376 45.3702 26.4376C46.4255 26.4258 47.2462 26.6636 47.8325 27.1394C47.8325 27.9481 47.5159 28.6498 46.8945 29.2445C46.3317 29.8154 45.5696 30.1365 44.7723 30.1365C44.2446 30.1484 43.7287 29.97 43.3066 29.637ZM53.693 36L60.0001 21.3116H57.9485L55.0295 28.638H54.9943L52.0049 21.3116H49.9533L54.0916 30.862L51.747 36H53.693Z" fill="#3C4043"/>
<path d="M26.5442 24.1659C26.5442 23.5831 26.4973 23.0003 26.4035 22.4294H18.4435V25.7239H23.0038C22.8162 26.7825 22.2066 27.734 21.3157 28.3286V30.4695H24.0355C25.6298 28.9828 26.5442 26.7825 26.5442 24.1659Z" fill="#4285F4"/>
<path d="M18.4439 32.539C20.7182 32.539 22.6408 31.7778 24.0358 30.4695L21.3161 28.3287C20.5541 28.852 19.581 29.1493 18.4439 29.1493C16.2399 29.1493 14.376 27.6388 13.7078 25.6169H10.9059V27.8291C12.3361 30.7193 15.2552 32.539 18.4439 32.539Z" fill="#34A853"/>
<path d="M13.7081 25.6169C13.3563 24.5584 13.3563 23.4048 13.7081 22.3343V20.134H10.9058C9.69811 22.5484 9.69811 25.4029 10.9058 27.8172L13.7081 25.6169Z" fill="#FBBC04"/>
<path d="M18.4439 18.802C19.6514 18.7782 20.812 19.2421 21.6795 20.0865L24.0944 17.6365C22.5587 16.1855 20.5423 15.3886 18.4439 15.4124C15.2552 15.4124 12.3361 17.244 10.9059 20.1341L13.7078 22.3463C14.376 20.3125 16.2399 18.802 18.4439 18.802Z" fill="#EA4335"/>
</svg>
