<?xml version="1.0" encoding="UTF-8" standalone="no"?><!DOCTYPE svg PUBLIC "-//W3C//DTD SVG 1.1//EN" "http://www.w3.org/Graphics/SVG/1.1/DTD/svg11.dtd"><svg width="100%" height="100%" viewBox="0 0 627 495" version="1.1" xmlns="http://www.w3.org/2000/svg" xmlns:xlink="http://www.w3.org/1999/xlink" xml:space="preserve" xmlns:serif="http://www.serif.com/" style="fill-rule:evenodd;clip-rule:evenodd;stroke-linejoin:round;stroke-miterlimit:2;"><path d="M433.359,482.552c-15.579,-5.08 -19.021,-11.555 -18.804,-28.084c0.121,-9.146 2.796,-18.958 4.175,-28.016c6.083,-40.005 12.9,-79.863 20.137,-119.675c7.242,-39.796 14.967,-79.513 23.2,-119.113c4.117,-19.804 8.363,-39.575 12.746,-59.321c3.838,-17.3 5.304,-39.471 13.154,-55.854c0.55,-0.021 1.1,-0.121 1.63,-0.387c6.7,-3.367 22.012,1.566 28.937,3.333c15.225,3.879 19.908,7.408 16.688,23.296c-7.071,34.866 -17.584,69 -24.713,103.904c-15.95,78.087 -24.479,157.479 -36.2,236.254c-1.242,8.35 -1.279,18.45 -4.158,26.383c-8.029,22.142 -19.292,22.984 -36.792,17.28m-146.475,-222.25c-33.025,-6.363 -67.667,-13.488 -101.3,-17.284c3.308,-17.529 6.196,-32.779 9.267,-50.354c34.283,6.654 68.558,13.358 102.858,19.929c33.888,6.488 111.571,24.346 145.854,28.579c-3.421,16.684 -6.766,33.388 -9.979,50.117c-31.996,-12.158 -113.45,-24.575 -146.7,-30.987m-134.283,102.275c-4.725,20.937 -4.734,54.783 -30.838,58.929c-18.754,2.983 -36.716,-11.409 -33.758,-30.813c1.458,-9.55 4.246,-19.075 6.442,-28.479c17.8,-76.275 38.52,-152.004 52.1,-229.192c6.17,-35.087 8.92,-70.695 15.129,-105.725c0.612,-3.45 1.312,-13.237 4.746,-15.641c3.833,-2.679 15.195,-0.717 19.104,-0.234c7.4,0.913 23.608,2.196 28.9,8.113c0.275,0.312 0.579,0.483 0.879,0.671c1.137,15.337 -4.658,33.691 -6.954,48.379c-2.921,18.642 -5.959,37.267 -9.113,55.871c-6.762,39.871 -14.058,79.658 -21.816,119.346c-7.759,39.704 -15.913,79.312 -24.821,118.775m340.621,4.404c12.133,-81.663 26,-162.967 46.9,-242.892c5.416,-20.704 17.737,-44.404 -6.288,-54.979c-12.221,-5.379 -37.442,-13.079 -49.254,-3.096c-1.604,1.354 -1.513,3.013 -0.65,4.329c-6.013,9.909 -7.138,21.7 -9.813,33.017c-4.97,20.996 -9.858,42.008 -14.562,63.062c-4.979,22.275 -9.771,44.592 -14.4,66.942c-33.058,-9.533 -112.025,-22.337 -145.767,-28.5c-34.421,-6.287 -67.691,-13.383 -103.496,-19.892c3.617,-20.829 6.78,-38.17 10.096,-59.05c3.6,-22.641 7.067,-45.312 10.279,-68.012c1.767,-12.463 6.109,-26.108 3.609,-38.708c1.037,-1.259 1.512,-3.055 0.637,-4.684c-6.633,-12.35 -30.391,-14.137 -42.408,-14.487c-21.371,-0.617 -24.188,8.012 -27.429,28.029c-12.671,78.196 -23.667,155.725 -41.229,233.133c-9.246,40.754 -20.105,81.209 -28.788,122.079c-5.067,23.838 0.721,42.188 27,46.513c9.508,1.562 22.942,3.092 31.925,-1.446c12.613,-6.371 12.883,-24.308 15.521,-36.25c9.012,-40.804 17.571,-81.733 25.592,-122.75c1.337,-6.833 1.962,-10.8 3.262,-17.642c33.646,5.788 67.883,9.08 101.333,15.934c34.18,7.004 112.213,27.012 146.709,32.021c-7.638,40.208 -14.646,80.55 -21.275,120.933c-4.304,26.217 -18.038,55.567 12.204,67.862c18.683,7.6 41.704,11.109 52.187,-10.141c7.138,-14.463 6.988,-33.538 9.225,-49.242c2.946,-20.696 5.805,-41.404 8.88,-62.083" style="fill:#ff4abe;fill-rule:nonzero;"/><path d="M546.473,414.414c-10.004,-0.087 -20.316,-2.192 -30.041,-4.921c7.487,-40.808 14.387,-81.733 21.6,-122.591c6.745,-38.184 15.491,-76.738 18.645,-115.459c12.238,2.342 24.775,3.767 36.78,7.138c11.216,3.146 10.083,1.937 8.62,13.062c-3.166,24.025 -7.645,47.917 -11.858,71.775c-5.496,31.104 -11.15,62.188 -16.983,93.234c-2.788,14.833 -5.654,29.654 -8.525,44.475c-2.225,11.487 -5.679,13.395 -18.238,13.287m69.796,-120.654c2.429,6.046 0.571,13.562 -2.958,18.708c-6.1,8.884 -15.509,10.542 -24.692,13.4c2.717,-14.5 5.358,-29.012 8.013,-43.525c7.825,1.063 16.333,3.192 19.637,11.417m-38.412,89.325c3.07,-16.3 6.137,-32.6 9.2,-48.904c15.591,3.108 33.887,-9.309 38.483,-23.767c5.471,-17.208 -8.325,-40.533 -27.504,-35.729c0.854,-4.696 1.746,-9.388 2.587,-14.088c3.029,-16.862 6.021,-33.733 8.75,-50.645c1.334,-8.259 4.879,-19.255 3.796,-27.705c-2.354,-18.391 -42.642,-20.095 -57.017,-18.875c-1.341,0.113 -2.304,0.842 -2.925,1.78c-0.233,0.245 -0.433,0.525 -0.537,0.879c-11.663,39.883 -17.067,81.983 -24.613,122.8c-7.595,41.062 -15.525,82.083 -22.579,123.241c-0.496,2.892 1.163,5.313 3.942,6.13c13.887,4.07 27.733,5.025 42.062,6.487c4.592,0.467 11.742,2.517 16.088,-0.658c8.546,-6.25 8.467,-31.4 10.267,-40.946" style="fill:#ff4abe;fill-rule:nonzero;"/><path d="M56.387,321.894c-3.488,-0.679 -6.946,-1.492 -10.371,-2.438c-3.804,-0.971 -22.4,-3.612 -24.092,-6.496c-1.966,-3.354 0.467,-9.758 0.996,-13.091c3.288,-20.738 7.746,-41.371 11.763,-61.975c8.179,-41.946 16.366,-83.909 25.471,-125.663c1.412,-6.471 2.658,-28.258 7.908,-32.987c5.162,-4.65 36.896,5.4 46.983,7.537c-19.996,64.759 -29.004,134.338 -42.591,200.629c-1.442,7.05 -2.667,16.709 -3.95,23.913c-0.638,3.571 -1.121,6.346 -2.646,8.121c-1.804,2.1 -4.959,2.916 -9.471,2.45m-45.254,-122.846c-2.084,-6.533 -1.296,-14.754 3.421,-20.058c6.029,-6.775 14.87,-5.463 22.675,-3.646c-2.85,14.446 -5.705,28.891 -8.496,43.346c-6.996,-5.596 -14.596,-10.225 -17.6,-19.642m87.458,7.683c7.938,-40.683 18.308,-81.758 22.138,-123.075c0.312,-1.529 -0.175,-3.179 -1.971,-4.071c-12.992,-6.441 -50.871,-19.62 -60.159,-3.529c-4.195,7.263 -4.841,18.921 -6.608,26.979c-3.671,16.734 -7.071,33.53 -10.442,50.33c-0.962,4.791 -1.875,9.587 -2.825,14.383c-6.82,-4.438 -16.395,-3.979 -23.695,-0.646c-9.425,4.3 -14.409,14.05 -14.988,24.108c-0.85,14.821 11.575,33.184 27.079,35.892c-3.116,16.188 -6.221,32.379 -9.325,48.571c-1.766,9.221 -10.833,32.254 -5.979,41.233c2.454,4.538 7.008,5.004 11.5,6.413c14.679,4.604 29.575,8.921 44.933,10.308c2.755,0.25 5.5,-0.937 6.13,-3.942c8.537,-40.883 16.212,-81.962 24.212,-122.954" style="fill:#ff4abe;fill-rule:nonzero;"/></svg>