<?xml version="1.0" encoding="UTF-8" standalone="no"?><!DOCTYPE svg PUBLIC "-//W3C//DTD SVG 1.1//EN" "http://www.w3.org/Graphics/SVG/1.1/DTD/svg11.dtd"><svg width="100%" height="100%" viewBox="0 0 617 598" version="1.1" xmlns="http://www.w3.org/2000/svg" xmlns:xlink="http://www.w3.org/1999/xlink" xml:space="preserve" xmlns:serif="http://www.serif.com/" style="fill-rule:evenodd;clip-rule:evenodd;stroke-linejoin:round;stroke-miterlimit:2;"><path d="M351.868,33.565c0.141,0.071 0.258,0.188 0.421,0.213c29.741,4.02 45.504,10.491 65.7,25.45c23.179,17.162 39.116,43.412 42.162,72.233c6.258,59.233 -36.242,112.371 -95.721,118.221c-63.829,6.279 -110.096,-43.867 -119.883,-103.679c-10.154,-62.075 47.846,-114.663 107.321,-112.438m-68.742,203.825c39.146,31.004 96.671,31.508 137.95,4.171c40.908,-27.096 60.025,-80.15 48.804,-127.496c-8.466,-35.729 -42.496,-75.412 -81.266,-85.754c-10.642,-2.838 -50.121,-6.583 -68.905,-1.404c-33.958,9.358 -66.483,38.254 -78.95,67.646c-19.97,47.07 3.446,112.012 42.367,142.837" style="fill:#ff4abe;fill-rule:nonzero;"/><path d="M362.419,138.716c5.637,7.304 2.47,18.975 -5.563,21.825c-6.767,2.4 -12.846,0.579 -17.742,-5.371c-4.579,-5.562 -4.675,-13.925 0.784,-19.045c6.258,-5.871 17.425,-4.013 22.521,2.591m-21.63,-13.825c-1.287,0.467 -2.545,1.021 -3.733,1.729c-10.912,6.5 -14.25,20.95 -8.642,31.975c5.18,10.18 23.521,18.5 35.042,8.888c9.55,-7.971 13.679,-20.221 7.704,-31.475c-4.704,-8.85 -15.337,-13.521 -25.129,-12.367c-1.158,-9.725 -3.787,-19.421 -6.212,-28.812c-2.5,-9.671 -3.488,-22.946 -11.48,-29.563c-1.179,-0.975 -3.041,-0.7 -3.491,0.925c-2.771,9.992 3.725,21.371 6.733,30.909c2.913,9.229 5.538,18.775 9.208,27.791" style="fill:#ff4abe;fill-rule:nonzero;"/><path d="M599.503,239.672c-13.3,69.217 -28.346,138.233 -49.646,205.479c-11.058,34.904 -23.425,69.788 -38.746,103.063c-6.658,14.458 -14.604,29.383 -29.829,36.05c-12.321,5.396 -26.896,4.429 -40.112,3.212c-41.642,-3.833 -83.221,-14.258 -123.975,-23.233c-39.659,-8.733 -78.371,-19.65 -117.55,-30.188c-32.192,-8.658 -64.688,-16.354 -96.15,-27.487c-13.467,-4.767 -26.571,-10.45 -39.963,-15.429c-13.841,-5.146 -31.241,-10.067 -41.625,-21.329c-25.666,-27.842 -7.808,-83.5 -0.896,-116.305c8.842,-41.995 19.15,-83.7 30.4,-125.112c11.759,-43.288 24.088,-86.829 40.659,-128.571c5.587,-14.079 11.796,-33.854 25.208,-42.558c13.921,-9.034 32.538,-6.588 48.308,-4.875c21.392,2.325 42.292,8.154 62.755,14.675c-1.209,1.871 -2.384,3.75 -3.471,5.637c-36.588,-11.271 -94.742,-33.216 -117.438,4.796c-16.616,27.833 -22.466,66.325 -31.087,97.238c-21.775,78.058 -48.825,157.925 -60.334,238.341c-1.845,12.896 -2.166,30.4 5.205,41.742c9.237,14.217 31.087,23.112 46.412,28.542c67.888,24.058 137.725,45.012 207.542,62.654c35.046,8.858 70.421,16.529 106.137,22.15c26.625,4.191 65.259,15.312 91.084,5.091c20.683,-8.183 33.158,-32.058 41.554,-51.2c12.146,-27.691 19.966,-57.545 28.579,-86.483c21.071,-70.787 38.5,-143.225 51.058,-216.012c3.754,-21.755 11.7,-45.463 -10.85,-58.484c-25.571,-14.771 -56.041,-22.537 -84.5,-29.179c-0.558,-0.129 -1.079,-0.15 -1.579,-0.129c-0.112,-1.733 -0.354,-3.458 -0.529,-5.188c28.146,5.767 57.092,12.496 83.042,24.846c17.125,8.146 27.787,20.025 28.037,39.575c0.204,16.163 -4.667,32.884 -7.7,48.671m-247.779,-229.512c0.262,0.183 0.554,0.37 0.908,0.412c34.609,3.958 61.529,13.975 87.371,36.133c25.783,22.113 42.104,53.434 44.388,87.413c4.633,68.95 -44.209,129.229 -112.73,138.242c-78.22,10.283 -135.566,-48.605 -149.587,-121.88c-14.571,-76.125 55.542,-144.037 129.65,-140.32m-60.129,399.483c11.108,-42.629 22.696,-85.142 31.483,-128.313c38.275,8.538 80.175,1.117 112.908,-21.129c38.684,-26.291 60.692,-71.858 60.975,-117.954c22.063,6.4 44.013,12.138 65.121,21.375c17.225,7.538 26.725,15.883 23.592,36.679c-2.371,15.709 -5.271,31.35 -8.308,46.938c-10.346,53.121 -23.13,105.783 -37.45,157.966c-6.675,24.321 -13.43,48.63 -20.942,72.709c-8.292,26.583 -16.992,60.537 -39.488,79.187c-23.445,19.438 -75.683,4.434 -103.266,-0.216c-30.371,-5.117 -60.488,-11.684 -90.367,-19.146c-9.058,-2.263 -15.642,-3.946 -24.654,-6.367c10.587,-37.5 20.054,-82.025 30.396,-121.729m-19.267,-151.413c13.721,10.33 29.267,17.505 45.567,21.8c-12.142,42.271 -22.971,84.905 -34.246,127.425c-10.463,39.455 -24.013,83.988 -32.175,121.138c-47.858,-12.988 -92.588,-27.138 -139.725,-42.529c-21.925,-7.159 -45.054,-12.688 -64.796,-24.971c-19.187,-11.938 -22.996,-27.704 -19.762,-48.879c10.425,-68.217 30.8,-135.754 48.587,-202.309c8.517,-31.879 17.225,-63.729 26.604,-95.362c9.054,-30.55 17.417,-53.688 54.417,-49.617c22.242,2.45 43.721,8.584 65.742,12c-1.496,2.859 -2.859,5.721 -4.046,8.575c-23.846,57.329 5.6,136.425 53.833,172.729m326.808,-106.658c-28.108,-21.783 -70.308,-29.192 -104.616,-36.221c-0.271,-1.483 -0.471,-2.975 -0.792,-4.454c-10.087,-46.312 -54.233,-92.042 -102.796,-105.962c-13.762,-3.946 -40.5,-6.375 -61.662,-3.992c-37.704,4.242 -76.229,30.562 -98.209,62.075c-37.283,-16.633 -106.837,-41.275 -132.829,3.25c-19.533,33.458 -29.879,73.821 -40.904,110.617c-15.058,50.27 -28.25,101.158 -39.775,152.354c-7.754,34.441 -21.517,76.729 -16.467,112.504c3.805,26.942 19.071,41.237 43.192,51.35c30.504,12.792 61.846,24.487 93.642,33.604c53.575,15.363 107.471,30.375 161.771,43.029c46.408,10.817 93.904,22.446 141.479,26.696c24.066,2.15 47.304,0.696 63.437,-19.333c19.396,-24.071 29.371,-59.4 39.817,-88.004c31.979,-87.6 51.925,-179.159 69.033,-270.663c4.704,-25.167 8.084,-49.487 -14.321,-66.85" style="fill:#ff4abe;fill-rule:nonzero;"/></svg>