<?xml version="1.0" encoding="UTF-8" standalone="no"?><!DOCTYPE svg PUBLIC "-//W3C//DTD SVG 1.1//EN" "http://www.w3.org/Graphics/SVG/1.1/DTD/svg11.dtd"><svg width="100%" height="100%" viewBox="0 0 47 46" version="1.1" xmlns="http://www.w3.org/2000/svg" xmlns:xlink="http://www.w3.org/1999/xlink" xml:space="preserve" xmlns:serif="http://www.serif.com/" style="fill-rule:evenodd;clip-rule:evenodd;stroke-linejoin:round;stroke-miterlimit:2;"><path d="M38.507,18.081c-2.874,0.44 -5.943,0.692 -8.732,1.539c-0.137,0.042 -0.203,0.195 -0.183,0.322c-0.717,1.563 -0.754,3.587 -1.124,5.277c-0.258,1.175 -0.551,2.342 -0.816,3.516c-0.964,-2.76 -3.148,-5.365 -4.549,-7.792c-1.64,-2.841 -2.98,-6.074 -5.098,-8.572c-0.068,-0.152 -0.293,-0.125 -0.362,0.028c-0.669,1.5 -0.68,3.313 -0.899,4.941c-0.241,1.793 -0.517,3.591 -0.596,5.401c-4.065,0.746 -8.271,1.554 -12.33,2.633c-1.106,-1.804 -1.948,-3.738 -2.321,-5.823c-1.037,-5.792 0.249,-13.264 5.688,-16.267c2.799,-1.544 5.941,-1.215 8.643,0.382c1.99,1.175 3.465,2.938 5.229,4.391c0.007,0.124 0.122,0.216 0.241,0.2c0.016,0.013 0.031,0.027 0.047,0.039c0.177,0.139 0.449,-0.094 0.334,-0.3c-0.013,-0.023 -0.028,-0.046 -0.041,-0.07c3.235,-4.058 7.419,-8.465 12.9,-6.053c5.139,2.261 7.085,8.081 6.67,13.514c-0.058,0.762 -0.157,1.517 -0.284,2.268c-0.805,0.154 -1.611,0.302 -2.417,0.426m8.027,-1.456c-1.404,0.203 -2.808,0.48 -4.213,0.758c0.381,-2.444 0.404,-4.924 -0.106,-7.328c-1.006,-4.74 -4.381,-8.984 -9.123,-9.899c-5.305,-1.022 -9.042,3.153 -11.721,7.323c-2.722,-4.363 -8.413,-7.699 -13.327,-5.917c-5.434,1.972 -7.861,7.973 -8.032,13.568c-0.104,3.398 0.464,6.848 2.135,9.807c0.147,0.261 0.306,0.515 0.463,0.77c-0.814,0.229 -1.624,0.467 -2.421,0.722c-0.192,0.062 -0.147,0.343 0.058,0.322c0.931,-0.095 1.868,-0.218 2.807,-0.352c1.543,2.322 3.459,4.415 5.351,6.4c2.272,2.383 4.711,4.6 7.284,6.625c2.608,2.052 5.672,4.638 8.831,5.646c0.468,0.149 0.732,-0.451 0.376,-0.764c-2.024,-1.774 -4.57,-2.987 -6.742,-4.577c-2.355,-1.723 -4.607,-3.606 -6.727,-5.634c-2.426,-2.321 -5.084,-4.924 -7.073,-7.886c4.054,-0.641 8.136,-1.573 12.069,-2.5c0.472,-0.111 0.469,-0.714 0.154,-0.92c0.399,-1.645 0.632,-3.328 0.883,-5.003c0.208,-1.386 0.591,-2.866 0.615,-4.297c1.221,2.833 2.812,5.603 4.313,8.258c0.793,1.402 1.64,2.769 2.449,4.16c0.826,1.422 1.497,3.053 2.561,4.289c0.216,0.251 0.654,0.056 0.582,-0.291c-0.021,-0.104 -0.051,-0.208 -0.076,-0.312c0.512,-1.69 0.982,-3.401 1.412,-5.115c0.347,-1.383 0.884,-2.917 0.736,-4.359c2.998,0.013 6.098,-0.635 9.055,-1.079c0.477,-0.071 1.014,-0.119 1.579,-0.168c-0.899,4.117 -2.752,8.024 -5.012,11.484c-1.416,2.168 -2.989,4.218 -4.552,6.272c-1.595,2.095 -3.652,4.176 -4.676,6.642c-0.141,0.341 0.282,0.564 0.526,0.376c2.542,-1.954 4.42,-5.277 6.37,-7.845c2.015,-2.654 3.984,-5.362 5.532,-8.347c1.381,-2.663 2.554,-5.642 3.199,-8.71c1.77,-0.19 3.589,-0.549 4.656,-1.696c0.159,-0.171 0.044,-0.457 -0.195,-0.423" style="fill:#ff4abe;fill-rule:nonzero;"/></svg>