<svg width="37" height="37" viewBox="0 0 37 37" fill="none" xmlns="http://www.w3.org/2000/svg">
<path d="M18.4962 10.0427C13.5745 10.0427 9.60473 13.8321 9.60473 18.53C9.60473 23.2279 13.5745 27.0173 18.4962 27.0173C23.4178 27.0173 27.3876 23.2279 27.3876 18.53C27.3876 13.8321 23.4178 10.0427 18.4962 10.0427ZM18.4962 24.0478C15.3157 24.0478 12.7156 21.5733 12.7156 18.53C12.7156 15.4867 15.3079 13.0121 18.4962 13.0121C21.6844 13.0121 24.2768 15.4867 24.2768 18.53C24.2768 21.5733 21.6767 24.0478 18.4962 24.0478V24.0478ZM29.8252 9.69551C29.8252 10.7961 28.8966 11.6751 27.7513 11.6751C26.5983 11.6751 25.6774 10.7887 25.6774 9.69551C25.6774 8.60228 26.6061 7.71588 27.7513 7.71588C28.8966 7.71588 29.8252 8.60228 29.8252 9.69551ZM35.7142 11.7047C35.5826 9.05287 34.9481 6.7039 32.9129 4.76859C30.8854 2.83328 28.4246 2.22757 25.6465 2.09461C22.7833 1.93949 14.2014 1.93949 11.3381 2.09461C8.56778 2.22019 6.10696 2.82589 4.07175 4.76121C2.03654 6.69652 1.40973 9.04548 1.27044 11.6973C1.10793 14.4304 1.10793 22.6222 1.27044 25.3553C1.40199 28.0071 2.03654 30.3561 4.07175 32.2914C6.10696 34.2267 8.56004 34.8324 11.3381 34.9654C14.2014 35.1205 22.7833 35.1205 25.6465 34.9654C28.4246 34.8398 30.8854 34.2341 32.9129 32.2914C34.9403 30.3561 35.5749 28.0071 35.7142 25.3553C35.8767 22.6222 35.8767 14.4378 35.7142 11.7047V11.7047ZM32.0152 28.2878C31.4116 29.7356 30.2431 30.851 28.7186 31.4345C26.4358 32.2988 21.0189 32.0993 18.4962 32.0993C15.9735 32.0993 10.5488 32.2914 8.27372 31.4345C6.75698 30.8584 5.58848 29.743 4.97715 28.2878C4.07175 26.1087 4.28069 20.938 4.28069 18.53C4.28069 16.1219 4.07949 10.9439 4.97715 8.77218C5.58074 7.32439 6.74925 6.209 8.27372 5.62545C10.5566 4.76121 15.9735 4.96065 18.4962 4.96065C21.0189 4.96065 26.4435 4.76859 28.7186 5.62545C30.2354 6.20161 31.4039 7.317 32.0152 8.77218C32.9206 10.9512 32.7117 16.1219 32.7117 18.53C32.7117 20.938 32.9206 26.1161 32.0152 28.2878Z" fill="white"/>
</svg>
