<?xml version="1.0" encoding="UTF-8" standalone="no"?><!DOCTYPE svg PUBLIC "-//W3C//DTD SVG 1.1//EN" "http://www.w3.org/Graphics/SVG/1.1/DTD/svg11.dtd"><svg width="100%" height="100%" viewBox="0 0 261 69" version="1.1" xmlns="http://www.w3.org/2000/svg" xmlns:xlink="http://www.w3.org/1999/xlink" xml:space="preserve" xmlns:serif="http://www.serif.com/" style="fill-rule:evenodd;clip-rule:evenodd;stroke-linejoin:round;stroke-miterlimit:2;"><path d="M36.99,0l0,68.513l1.094,-0c0.601,-0 1.646,-0.43 2.321,-0.954c2.52,-1.958 2.596,-2.455 2.596,-16.837l0,-13.268l26.939,-0l-0,-6.424l-15.264,0.045l-11.444,0.046l-0.121,-15.56l-0.122,-15.561l-5.999,-0Zm-18.495,34.485c0,27.318 0.047,29.003 0.809,29.001c1.419,-0.002 3.632,-1.664 4.43,-3.324c0.693,-1.444 0.772,-4.302 0.772,-28.144l0,-26.537l-6.011,0l0,29.004Zm-18.495,-9.364l0,18.663l1.492,-0.422c0.82,-0.233 2.12,-1.044 2.89,-1.803l1.398,-1.38l0.146,-7.529l0.147,-7.529l-6.073,0Z" style="fill:#fff;"/><path d="M104.082,49.957l0,-32.321l6.629,0l-0,-3.648l-17.266,-0l0,3.648l6.629,0l0,32.321l4.008,0Zm13.22,-8.684c0,5.447 2.724,9.044 8.222,9.044c5.549,-0 8.273,-3.597 8.273,-9.044l-0,-18.601c-0,-5.498 -2.724,-9.044 -8.273,-9.044c-5.498,0 -8.222,3.546 -8.222,9.044l0,18.601Zm3.957,-18.807c-0,-3.237 1.387,-5.189 4.265,-5.189c2.929,-0 4.265,1.952 4.265,5.189l-0,19.013c-0,3.288 -1.336,5.189 -4.265,5.189c-2.878,0 -4.265,-1.901 -4.265,-5.189l-0,-19.013Zm39.394,-1.438l0,28.929l3.803,0l-0,-35.969l-5.601,-0l-5.704,28.724l-5.909,-28.724l-5.601,-0l0,35.969l3.494,0l0,-28.672l5.961,28.621l3.854,-0l5.703,-28.878Zm12.047,-7.04l0,35.969l4.008,0l0,-35.969l-4.008,-0Zm12.24,-0l-0,35.969l8.427,0c5.601,0 8.17,-3.391 8.17,-8.889l-0,-18.139c-0,-5.55 -2.569,-8.941 -8.17,-8.941l-8.427,-0Zm4.008,32.321l-0,-28.673l4.316,0c2.929,0 4.316,1.799 4.316,5.087l0,18.499c0,3.288 -1.387,5.087 -4.265,5.087l-4.367,-0Zm20.476,-32.321l0,35.969l4.008,0l0,-35.969l-4.008,-0Zm16.248,15.929l-0,-12.281l10.791,0l-0,-3.648l-14.799,-0l-0,35.969l14.799,0l-0,-3.648l-10.791,-0l-0,-12.795l8.787,0l-0,-3.597l-8.787,0Zm27.869,20.04l-0,-32.321l6.628,0l0,-3.648l-17.265,-0l0,3.648l6.629,0l-0,32.321l4.008,0Z" style="fill:#fff;fill-rule:nonzero;"/></svg>