<svg width="70" height="48" viewBox="0 0 70 48" fill="none" xmlns="http://www.w3.org/2000/svg">
<rect x="0.5" y="0.5" width="69" height="47" rx="5.5" fill="white" stroke="#D9D9D9"/>
<path fill-rule="evenodd" clip-rule="evenodd" d="M19.8 30.4819H16.6888C16.4759 30.4819 16.2948 30.6367 16.2616 30.8468L15.0033 38.8249C14.9783 38.9824 15.1002 39.1243 15.2599 39.1243H16.7452C16.9581 39.1243 17.1392 38.9695 17.1724 38.759L17.5118 36.6072C17.5445 36.3965 17.726 36.2419 17.9385 36.2419H18.9234C20.9729 36.2419 22.1556 35.2502 22.4647 33.2849C22.6038 32.4251 22.4705 31.7495 22.0678 31.2762C21.6257 30.7569 20.8413 30.4819 19.8 30.4819ZM20.159 33.3958C19.9889 34.5123 19.1358 34.5123 18.3111 34.5123H17.8416L18.1709 32.4272C18.1905 32.3013 18.2997 32.2085 18.4271 32.2085H18.6422C19.2041 32.2085 19.7341 32.2085 20.008 32.5287C20.1712 32.7198 20.2213 33.0036 20.159 33.3958ZM29.1002 33.36H27.6103C27.4834 33.36 27.3737 33.4529 27.3541 33.579L27.2882 33.9956L27.184 33.8447C26.8615 33.3765 26.1423 33.22 25.4244 33.22C23.7779 33.22 22.3718 34.467 22.0979 36.2163C21.9556 37.0887 22.1579 37.923 22.6529 38.5049C23.107 39.0398 23.7567 39.2628 24.5295 39.2628C25.856 39.2628 26.5918 38.4097 26.5918 38.4097L26.5253 38.8238C26.5002 38.9822 26.6221 39.1241 26.7809 39.1241H28.123C28.3365 39.1241 28.5165 38.9693 28.5501 38.7588L29.3554 33.6594C29.3809 33.5026 29.2594 33.36 29.1002 33.36ZM27.0234 36.2598C26.8796 37.111 26.204 37.6824 25.3426 37.6824C24.9099 37.6824 24.564 37.5436 24.3421 37.2807C24.1219 37.0196 24.0381 36.6478 24.1082 36.2339C24.2425 35.3899 24.9295 34.8 25.7779 34.8C26.2009 34.8 26.5449 34.9405 26.7714 35.2057C26.9983 35.4737 27.0885 35.8476 27.0234 36.2598ZM35.5379 33.3598H37.0352C37.2449 33.3598 37.3672 33.595 37.2481 33.767L32.2685 40.9548C32.1878 41.0712 32.055 41.1405 31.9131 41.1405H30.4177C30.2072 41.1405 30.0842 40.9034 30.2061 40.731L31.7567 38.5424L30.1076 33.7028C30.0506 33.5346 30.1748 33.3598 30.3537 33.3598H31.8249C32.016 33.3598 32.1847 33.4853 32.2398 33.6683L33.115 36.5912L35.1801 33.5495C35.2609 33.4308 35.3952 33.3598 35.5379 33.3598Z" fill="#253B80"/>
<path fill-rule="evenodd" clip-rule="evenodd" d="M51.7709 38.8248L53.0478 30.7008C53.0673 30.5747 53.1766 30.4819 53.3035 30.4814H54.741C54.8998 30.4814 55.0216 30.6238 54.9966 30.7812L53.7374 38.7589C53.7046 38.9695 53.5235 39.1242 53.3103 39.1242H52.0265C51.8677 39.1242 51.7459 38.9823 51.7709 38.8248ZM41.9921 30.4819H38.8803C38.6679 30.4819 38.4869 30.6366 38.4536 30.8467L37.1953 38.8248C37.1702 38.9823 37.2921 39.1242 37.4511 39.1242H39.0477C39.1961 39.1242 39.3231 39.016 39.3462 38.8686L39.7033 36.6071C39.7361 36.3964 39.9176 36.2419 40.13 36.2419H41.1145C43.1644 36.2419 44.3469 35.2501 44.6562 33.2848C44.7957 32.425 44.6616 31.7494 44.2591 31.2762C43.8172 30.7568 43.0334 30.4819 41.9921 30.4819ZM42.3511 33.3958C42.1814 34.5122 41.3284 34.5122 40.5031 34.5122H40.034L40.3639 32.4271C40.3835 32.3012 40.4917 32.2084 40.6195 32.2084H40.8347C41.3961 32.2084 41.9267 32.2084 42.2004 32.5286C42.3637 32.7198 42.4134 33.0036 42.3511 33.3958ZM51.2915 33.36H49.8027C49.6747 33.36 49.5661 33.4528 49.5469 33.5789L49.481 33.9956L49.3764 33.8446C49.0538 33.3764 48.3351 33.22 47.6172 33.22C45.9707 33.22 44.565 34.4669 44.2911 36.2162C44.1492 37.0886 44.3507 37.9229 44.8456 38.5048C45.3006 39.0398 45.9494 39.2627 46.7223 39.2627C48.0488 39.2627 48.7844 38.4097 48.7844 38.4097L48.7181 38.8238C48.693 38.9821 48.8149 39.124 48.9747 39.124H50.3162C50.5286 39.124 50.7096 38.9693 50.7429 38.7587L51.5486 33.6593C51.5732 33.5025 51.4513 33.36 51.2915 33.36ZM49.2149 36.2598C49.072 37.1109 48.3955 37.6823 47.5338 37.6823C47.1021 37.6823 46.7555 37.5436 46.5334 37.2806C46.3132 37.0196 46.2305 36.6478 46.2997 36.2339C46.4347 35.3899 47.1208 34.8 47.9692 34.8C48.3924 34.8 48.7362 34.9404 48.9629 35.2057C49.1907 35.4737 49.2808 35.8476 49.2149 36.2598Z" fill="#179BD7"/>
<path d="M31.314 27.6279L31.6966 25.1984L30.8446 25.1786H26.7761L29.6035 7.25093C29.6121 7.19681 29.6408 7.14634 29.6824 7.11051C29.7241 7.07468 29.7776 7.05493 29.8332 7.05493H36.6932C38.9707 7.05493 40.5423 7.52885 41.3629 8.46424C41.7475 8.90306 41.9926 9.36161 42.1111 9.86624C42.2353 10.3958 42.2376 11.0284 42.1162 11.8L42.1073 11.8563V12.3506L42.4922 12.5686C42.8162 12.7405 43.0734 12.9372 43.2709 13.1625C43.6002 13.5376 43.813 14.0145 43.9029 14.5798C43.9957 15.1612 43.965 15.8531 43.813 16.6364C43.6374 17.5374 43.3536 18.3222 42.9705 18.9643C42.6178 19.5559 42.1688 20.0466 41.6357 20.427C41.1267 20.7883 40.5218 21.0626 39.838 21.2382C39.1753 21.4106 38.4199 21.4977 37.5913 21.4977H37.0574C36.6757 21.4977 36.3048 21.6352 36.0138 21.8817C35.722 22.1333 35.5288 22.4769 35.4696 22.8529L35.4294 23.0716L34.7536 27.3535L34.7229 27.5108C34.7149 27.5607 34.701 27.5855 34.6806 27.6024C34.6622 27.6175 34.6359 27.6279 34.6102 27.6279H31.314Z" fill="#253B80"/>
<path d="M42.8564 11.9136C42.836 12.0445 42.8126 12.1783 42.7863 12.3158C41.8814 16.9606 38.7865 18.5652 34.8334 18.5652H32.8208C32.3374 18.5652 31.93 18.9163 31.8547 19.3931L30.8241 25.9286L30.5323 27.781C30.4833 28.094 30.7248 28.3763 31.0406 28.3763H34.6105C35.0332 28.3763 35.3922 28.0692 35.4587 27.6523L35.4938 27.4709L36.166 23.2056L36.2092 22.9717C36.2749 22.5534 36.6347 22.2462 37.0574 22.2462H37.5913C41.0498 22.2462 43.7574 20.842 44.5488 16.7785C44.8793 15.0811 44.7082 13.6637 43.8334 12.6669C43.5688 12.3663 43.2404 12.1169 42.8564 11.9136Z" fill="#179BD7"/>
<path d="M41.9096 11.5364C41.7715 11.4962 41.6288 11.4596 41.4825 11.4267C41.3355 11.3945 41.1848 11.366 41.0298 11.3411C40.4871 11.2534 39.8926 11.2117 39.2555 11.2117H33.8787C33.7463 11.2117 33.6206 11.2416 33.5079 11.2958C33.2599 11.415 33.0757 11.6498 33.0311 11.9372L31.8871 19.182L31.8542 19.3933C31.9296 18.9165 32.337 18.5654 32.8204 18.5654H34.833C38.7861 18.5654 41.8812 16.9601 42.7859 12.316C42.8128 12.1785 42.8355 12.0447 42.856 11.9138C42.6271 11.7924 42.3791 11.6885 42.1122 11.6C42.0465 11.5781 41.9785 11.5569 41.9096 11.5364Z" fill="#222D65"/>
<path d="M33.0311 11.9371C33.0758 11.6497 33.2602 11.4149 33.508 11.2964C33.6215 11.2423 33.7465 11.2123 33.8787 11.2123H39.2558C39.8928 11.2123 40.4874 11.254 41.0299 11.3418C41.185 11.3666 41.3358 11.3951 41.4827 11.4273C41.629 11.4602 41.7716 11.4968 41.9099 11.537C41.9785 11.5575 42.0465 11.5787 42.1131 11.5999C42.38 11.6884 42.628 11.793 42.8568 11.9137C43.1261 10.1972 42.8547 9.02849 41.9267 7.97021C40.9036 6.80518 39.0568 6.3064 36.6939 6.3064H29.8337C29.3509 6.3064 28.9393 6.65743 28.8646 7.13501L26.0073 25.247C25.9509 25.6053 26.2273 25.9287 26.5886 25.9287H30.824L31.8873 19.1819L33.0311 11.9371Z" fill="#253B80"/>
</svg>
